<svg width="67" height="144" viewBox="0 0 67 144" fill="none" xmlns="http://www.w3.org/2000/svg">
<g clip-path="url(#clip0_7_1328)">
<path d="M43.3641 38.5181C47.0342 38.5181 50.0094 37.0358 50.0094 35.2074C50.0094 33.3789 47.0342 31.8967 43.3641 31.8967C39.694 31.8967 36.7188 33.3789 36.7188 35.2074C36.7188 37.0358 39.694 38.5181 43.3641 38.5181Z" fill="#464646"/>
<path d="M23.6361 38.5181C27.3062 38.5181 30.2814 37.0358 30.2814 35.2074C30.2814 33.3789 27.3062 31.8967 23.6361 31.8967C19.9659 31.8967 16.9907 33.3789 16.9907 35.2074C16.9907 37.0358 19.9659 38.5181 23.6361 38.5181Z" fill="#464646"/>
<path d="M33.5 4.01851C25.772 4.01851 19.4231 9.89444 18.7083 17.4058C18.6368 18.1639 19.2486 18.8172 20.0117 18.8172H46.9904C47.7536 18.8172 48.3632 18.1639 48.2918 17.4079C47.5791 9.89444 41.2281 4.01642 33.5 4.01642V4.01851Z" fill="#464646"/>
<path d="M32.5183 0H34.484C34.6585 0 34.7993 0.140302 34.7993 0.314109V4.14624C34.7993 4.17346 34.7783 4.1944 34.751 4.1944H32.2535C32.2261 4.1944 32.2051 4.17346 32.2051 4.14624V0.314109C32.203 0.140302 32.3439 0 32.5183 0Z" fill="#464646"/>
<path d="M15.3298 71.8744L14.0621 84.7089C13.9234 86.1077 15.4328 87.0751 16.6543 86.3736L50.1732 67.0978C50.7618 66.7586 51.0982 66.1073 51.0309 65.433L49.8999 53.9765C49.7758 52.7263 48.3988 52.0227 47.3078 52.6509L16.1854 70.5488C15.7019 70.8273 15.3824 71.3215 15.3277 71.8744H15.3298Z" fill="#464646"/>
<path d="M54.0732 91.0413L52.9443 79.6035C52.8203 78.3575 51.4475 77.6539 50.3585 78.2801L12.78 99.8928C12.2965 100.171 11.9791 100.663 11.9244 101.216L10.6588 114.03C10.5201 115.424 12.0253 116.392 13.2447 115.69L53.2176 92.7018C53.8062 92.3647 54.1405 91.7155 54.0732 91.0413V91.0413Z" fill="#464646"/>
<path d="M46.0736 18.6392H20.926L17.4699 53.6477C17.3311 55.0444 18.8385 56.0119 20.0578 55.3104L47.1353 39.739C47.7239 39.3997 48.0582 38.7506 47.993 38.0763L46.0736 18.6392V18.6392ZM35.6631 28.9985C35.6631 29.1828 35.5117 29.3336 35.3267 29.3336H31.6708C31.4858 29.3336 31.3345 29.1828 31.3345 28.9985V24.4963C31.3345 23.3048 32.3036 22.3415 33.4977 22.3415C34.6918 22.3415 35.661 23.3069 35.661 24.4963V28.9985H35.6631Z" fill="#464646"/>
<path d="M55.9819 106.074C55.8578 104.826 54.4829 104.123 53.3939 104.751L9.37407 130.066C8.89055 130.345 8.571 130.837 8.51634 131.39L7.87724 137.862C7.77633 138.876 8.57731 139.755 9.59902 139.755H57.3946C58.4184 139.755 59.2173 138.876 59.1164 137.862L55.9776 106.074H55.9819ZM35.6632 138.197C35.6632 138.382 35.5119 138.532 35.3268 138.532H31.671C31.486 138.532 31.3346 138.382 31.3346 138.197V133.695C31.3346 132.504 32.3038 131.54 33.4979 131.54C34.692 131.54 35.6611 132.506 35.6611 133.695V138.197H35.6632Z" fill="#464646"/>
<path d="M33.4999 134.585C20.9408 134.585 10.7573 136.29 10.7573 138.392C10.7573 140.495 20.9387 142.199 33.4999 142.199C46.0611 142.199 56.2425 140.495 56.2425 138.392C56.2425 136.29 46.0611 134.585 33.4999 134.585V134.585ZM33.4999 141.299C23.9114 141.299 16.1371 139.998 16.1371 138.392C16.1371 136.786 23.9114 135.486 33.4999 135.486C43.0885 135.486 50.8627 136.786 50.8627 138.392C50.8627 139.998 43.0885 141.299 33.4999 141.299Z" fill="#464646"/>
<path d="M33.5001 136.386C26.8821 136.386 21.5171 137.284 21.5171 138.392C21.5171 139.5 26.8821 140.398 33.5001 140.398C40.1182 140.398 45.4832 139.5 45.4832 138.392C45.4832 137.284 40.1182 136.386 33.5001 136.386ZM33.5001 139.498C29.8527 139.498 26.8947 139.004 26.8947 138.392C26.8947 137.781 29.8527 137.286 33.5001 137.286C37.1476 137.286 40.1055 137.781 40.1055 138.392C40.1055 139.004 37.1476 139.498 33.5001 139.498V139.498Z" fill="#464646"/>
<path d="M67 138.392C67 135.295 52.0023 132.784 33.5 132.784C14.9977 132.784 0 135.295 0 138.392C0 141.489 14.9977 144 33.5 144C52.0023 144 67 141.489 67 138.392ZM33.5 143.1C17.9683 143.1 5.37976 140.993 5.37976 138.392C5.37976 135.791 17.9704 133.685 33.5 133.685C49.0296 133.685 61.6202 135.791 61.6202 138.392C61.6202 140.993 49.0296 143.1 33.5 143.1V143.1Z" fill="#464646"/>
</g>
<defs>
<clipPath id="clip0_7_1328">
<rect width="67" height="144" fill="white"/>
</clipPath>
</defs>
</svg>
