<?xml version="1.0" encoding="utf-8"?>
<!-- Generator: Adobe Illustrator 26.5.0, SVG Export Plug-In . SVG Version: 6.00 Build 0)  -->
<svg version="1.1" id="Layer_1" xmlns="http://www.w3.org/2000/svg" xmlns:xlink="http://www.w3.org/1999/xlink" x="0px" y="0px"
	 viewBox="0 0 67 144" style="enable-background:new 0 0 67 144;" xml:space="preserve">
<style type="text/css">
	.st0{clip-path:url(#SVGID_00000088836798568884884830000015981963521027179452_);}
	.st1{fill:#464646;}
	.st2{opacity:0.38;}
</style>
<g>
	<defs>
		<rect id="SVGID_1_" y="0" width="67" height="144"/>
	</defs>
	<clipPath id="SVGID_00000031187584238897141680000007370817383493302921_">
		<use xlink:href="#SVGID_1_"  style="overflow:visible;"/>
	</clipPath>
	<g style="clip-path:url(#SVGID_00000031187584238897141680000007370817383493302921_);">
		<path class="st1" d="M43.4,38.5c3.7,0,6.6-1.5,6.6-3.3c0-1.8-3-3.3-6.6-3.3c-3.7,0-6.6,1.5-6.6,3.3C36.7,37,39.7,38.5,43.4,38.5z"
			/>
		<path class="st1" d="M23.6,38.5c3.7,0,6.6-1.5,6.6-3.3c0-1.8-3-3.3-6.6-3.3c-3.7,0-6.6,1.5-6.6,3.3C17,37,20,38.5,23.6,38.5z"/>
		<path class="st1" d="M33.5,4c-7.7,0-14.1,5.9-14.8,13.4c-0.1,0.8,0.5,1.4,1.3,1.4h27c0.8,0,1.4-0.7,1.3-1.4
			C47.6,9.9,41.2,4,33.5,4L33.5,4z"/>
		<path class="st1" d="M32.5,0h2c0.2,0,0.3,0.1,0.3,0.3v3.8c0,0,0,0,0,0h-2.5c0,0,0,0,0,0V0.3C32.2,0.1,32.3,0,32.5,0z"/>
		<path class="st1" d="M15.3,71.9l-1.3,12.8c-0.1,1.4,1.4,2.4,2.6,1.7l33.5-19.3c0.6-0.3,0.9-1,0.9-1.7L49.9,54
			c-0.1-1.3-1.5-2-2.6-1.3L16.2,70.5C15.7,70.8,15.4,71.3,15.3,71.9L15.3,71.9z"/>
		<path class="st1" d="M54.1,91l-1.1-11.4c-0.1-1.2-1.5-1.9-2.6-1.3L12.8,99.9c-0.5,0.3-0.8,0.8-0.9,1.3L10.7,114
			c-0.1,1.4,1.4,2.4,2.6,1.7l40-23C53.8,92.4,54.1,91.7,54.1,91L54.1,91z"/>
		<path class="st1" d="M46.1,18.6H20.9l-3.5,35c-0.1,1.4,1.4,2.4,2.6,1.7l27.1-15.6c0.6-0.3,0.9-1,0.9-1.7L46.1,18.6L46.1,18.6z
			 M35.7,29c0,0.2-0.2,0.3-0.3,0.3h-3.7c-0.2,0-0.3-0.2-0.3-0.3v-4.5c0-1.2,1-2.2,2.2-2.2s2.2,1,2.2,2.2L35.7,29L35.7,29z"/>
		<path class="st1" d="M56,106.1c-0.1-1.2-1.5-2-2.6-1.3l-44,25.3c-0.5,0.3-0.8,0.8-0.9,1.3l-0.6,6.5c-0.1,1,0.7,1.9,1.7,1.9h47.8
			c1,0,1.8-0.9,1.7-1.9L56,106.1L56,106.1z M35.7,138.2c0,0.2-0.2,0.3-0.3,0.3h-3.7c-0.2,0-0.3-0.1-0.3-0.3v-4.5
			c0-1.2,1-2.2,2.2-2.2c1.2,0,2.2,1,2.2,2.2L35.7,138.2L35.7,138.2z"/>
		<path class="st1" d="M33.5,134.6c-12.6,0-22.7,1.7-22.7,3.8c0,2.1,10.2,3.8,22.7,3.8s22.7-1.7,22.7-3.8
			C56.2,136.3,46.1,134.6,33.5,134.6L33.5,134.6z M33.5,141.3c-9.6,0-17.4-1.3-17.4-2.9s7.8-2.9,17.4-2.9c9.6,0,17.4,1.3,17.4,2.9
			S43.1,141.3,33.5,141.3z"/>
		<path class="st1" d="M33.5,136.4c-6.6,0-12,0.9-12,2s5.4,2,12,2c6.6,0,12-0.9,12-2S40.1,136.4,33.5,136.4z M33.5,139.5
			c-3.6,0-6.6-0.5-6.6-1.1c0-0.6,3-1.1,6.6-1.1c3.6,0,6.6,0.5,6.6,1.1C40.1,139,37.1,139.5,33.5,139.5L33.5,139.5z"/>
		<path class="st1" d="M67,138.4c0-3.1-15-5.6-33.5-5.6S0,135.3,0,138.4s15,5.6,33.5,5.6S67,141.5,67,138.4z M33.5,143.1
			c-15.5,0-28.1-2.1-28.1-4.7s12.6-4.7,28.1-4.7s28.1,2.1,28.1,4.7S49,143.1,33.5,143.1L33.5,143.1z"/>
	</g>
</g>
<g class="st2">
	<image style="overflow:visible;" width="87" height="87" xlink:href="47C32C2921550772.png"  transform="matrix(1 0 0 1 -10 -17)">
	</image>
</g>
</svg>
