<svg width="44" height="95" viewBox="0 0 44 95" fill="none" xmlns="http://www.w3.org/2000/svg">
<g clip-path="url(#clip0_34_66)">
<path d="M28.4779 25.4113C30.8881 25.4113 32.842 24.4334 32.842 23.2271C32.842 22.0208 30.8881 21.043 28.4779 21.043C26.0676 21.043 24.1138 22.0208 24.1138 23.2271C24.1138 24.4334 26.0676 25.4113 28.4779 25.4113Z" fill="#464646"/>
<path d="M15.5221 25.4113C17.9323 25.4113 19.8862 24.4334 19.8862 23.2271C19.8862 22.0208 17.9323 21.043 15.5221 21.043C13.1118 21.043 11.158 22.0208 11.158 23.2271C11.158 24.4334 13.1118 25.4113 15.5221 25.4113Z" fill="#464646"/>
<path d="M21.9999 2.65128C16.9248 2.65128 12.7554 6.52776 12.286 11.4832C12.239 11.9833 12.6408 12.4143 13.1419 12.4143H30.8593C31.3605 12.4143 31.7608 11.9833 31.7139 11.4846C31.2459 6.52776 27.075 2.6499 21.9999 2.6499V2.65128Z" fill="#464646"/>
<path d="M21.3551 0H22.646C22.7606 0 22.8531 0.0925603 22.8531 0.207225V2.73536C22.8531 2.75332 22.8393 2.76714 22.8213 2.76714H21.1812C21.1632 2.76714 21.1494 2.75332 21.1494 2.73536V0.207225C21.148 0.0925603 21.2405 0 21.3551 0Z" fill="#464646"/>
<path d="M10.0674 47.417L9.23486 55.8841C9.14374 56.807 10.135 57.4452 10.9371 56.9824L32.9496 44.2658C33.3361 44.042 33.557 43.6123 33.5129 43.1675L32.7701 35.6093C32.6886 34.7845 31.7843 34.3204 31.0678 34.7348L10.6293 46.5425C10.3117 46.7262 10.1019 47.0522 10.066 47.417H10.0674Z" fill="#464646"/>
<path d="M35.5107 60.0621L34.7693 52.5163C34.6879 51.6943 33.7863 51.2302 33.0712 51.6432L8.3928 65.9017C8.07526 66.0854 7.86679 66.41 7.83089 66.7748L6.99976 75.2281C6.90864 76.1482 7.89716 76.7865 8.69791 76.3237L34.9488 61.1576C35.3354 60.9352 35.5549 60.5069 35.5107 60.0621V60.0621Z" fill="#464646"/>
<path d="M30.2575 12.2969H13.7426L11.4729 35.3927C11.3818 36.3142 12.3717 36.9524 13.1724 36.4896L30.9547 26.2168C31.3412 25.993 31.5608 25.5648 31.518 25.1199L30.2575 12.2969V12.2969ZM23.4207 19.1311C23.4207 19.2527 23.3213 19.3522 23.1998 19.3522H20.7989C20.6774 19.3522 20.578 19.2527 20.578 19.1311V16.1609C20.578 15.3748 21.2145 14.7394 21.9987 14.7394C22.7828 14.7394 23.4193 15.3762 23.4193 16.1609V19.1311H23.4207Z" fill="#464646"/>
<path d="M36.7642 69.9795C36.6828 69.1561 35.7798 68.692 35.0647 69.1064L6.15612 85.8073C5.83858 85.9911 5.62872 86.3157 5.59283 86.6804L5.17312 90.9506C5.10685 91.6193 5.63286 92.1995 6.30384 92.1995H37.692C38.3643 92.1995 38.889 91.6193 38.8227 90.9506L36.7614 69.9795H36.7642ZM23.4206 91.1717C23.4206 91.2933 23.3212 91.3927 23.1997 91.3927H20.7989C20.6774 91.3927 20.578 91.2933 20.578 91.1717V88.2015C20.578 87.4154 21.2144 86.7799 21.9986 86.7799C22.7828 86.7799 23.4192 87.4168 23.4192 88.2015V91.1717H23.4206Z" fill="#464646"/>
<path d="M21.9999 88.7886C13.7521 88.7886 7.06445 89.9131 7.06445 91.3001C7.06445 92.6872 13.7507 93.8117 21.9999 93.8117C30.249 93.8117 36.9353 92.6872 36.9353 91.3001C36.9353 89.9131 30.249 88.7886 21.9999 88.7886V88.7886ZM21.9999 93.2177C15.7029 93.2177 10.5974 92.3597 10.5974 91.3001C10.5974 90.2405 15.7029 89.3826 21.9999 89.3826C28.2968 89.3826 33.4023 90.2405 33.4023 91.3001C33.4023 92.3597 28.2968 93.2177 21.9999 93.2177Z" fill="#464646"/>
<path d="M22.0001 89.9766C17.6539 89.9766 14.1306 90.5692 14.1306 91.3C14.1306 92.0309 17.6539 92.6235 22.0001 92.6235C26.3462 92.6235 29.8696 92.0309 29.8696 91.3C29.8696 90.5692 26.3462 89.9766 22.0001 89.9766ZM22.0001 92.0295C19.6047 92.0295 17.6622 91.7034 17.6622 91.3C17.6622 90.8966 19.6047 90.5706 22.0001 90.5706C24.3954 90.5706 26.338 90.8966 26.338 91.3C26.338 91.7034 24.3954 92.0295 22.0001 92.0295V92.0295Z" fill="#464646"/>
<path d="M44 91.3002C44 89.257 34.1507 87.6006 22 87.6006C9.84926 87.6006 0 89.257 0 91.3002C0 93.3435 9.84926 94.9999 22 94.9999C34.1507 94.9999 44 93.3435 44 91.3002ZM22 94.4058C11.8001 94.4058 3.53298 93.0161 3.53298 91.3002C3.53298 89.5844 11.8014 88.1946 22 88.1946C32.1986 88.1946 40.467 89.5844 40.467 91.3002C40.467 93.0161 32.1986 94.4058 22 94.4058V94.4058Z" fill="#464646"/>
</g>
<defs>
<clipPath id="clip0_34_66">
<rect width="44" height="95" fill="white"/>
</clipPath>
</defs>
</svg>
